<svg width="36" height="35" viewBox="0 0 36 35" fill="none" xmlns="http://www.w3.org/2000/svg">
<path d="M23.6239 5.54805V4.375C23.6239 3.50476 23.2782 2.67016 22.6628 2.05481C22.0475 1.43945 21.2129 1.09375 20.3427 1.09375H15.9677C15.0974 1.09375 14.2628 1.43945 13.6475 2.05481C13.0321 2.67016 12.6864 3.50476 12.6864 4.375V5.54805C10.8654 5.81347 9.2006 6.72486 7.99582 8.11588C6.79104 9.5069 6.12664 11.2848 6.1239 13.125V29.5312C6.1239 30.1114 6.35437 30.6678 6.76461 31.078C7.17484 31.4883 7.73124 31.7188 8.3114 31.7188H27.9989C28.5791 31.7188 29.1355 31.4883 29.5457 31.078C29.9559 30.6678 30.1864 30.1114 30.1864 29.5312V13.125C30.1837 11.2848 29.5193 9.5069 28.3145 8.11588C27.1097 6.72486 25.4449 5.81347 23.6239 5.54805ZM14.8739 4.375C14.8739 4.08492 14.9891 3.80672 15.1943 3.6016C15.3994 3.39648 15.6776 3.28125 15.9677 3.28125H20.3427C20.6327 3.28125 20.9109 3.39648 21.1161 3.6016C21.3212 3.80672 21.4364 4.08492 21.4364 4.375V5.46875H14.8739V4.375ZM15.9677 9.84375H20.3427C20.6327 9.84375 20.9109 9.95898 21.1161 10.1641C21.3212 10.3692 21.4364 10.6474 21.4364 10.9375C21.4364 11.2276 21.3212 11.5058 21.1161 11.7109C20.9109 11.916 20.6327 12.0312 20.3427 12.0312H15.9677C15.6776 12.0312 15.3994 11.916 15.1943 11.7109C14.9891 11.5058 14.8739 11.2276 14.8739 10.9375C14.8739 10.6474 14.9891 10.3692 15.1943 10.1641C15.3994 9.95898 15.6776 9.84375 15.9677 9.84375ZM24.7177 29.5312H11.5927V24.0625H19.2489V25.1562C19.2489 25.4463 19.3641 25.7245 19.5693 25.9296C19.7744 26.1348 20.0526 26.25 20.3427 26.25C20.6327 26.25 20.9109 26.1348 21.1161 25.9296C21.3212 25.7245 21.4364 25.4463 21.4364 25.1562V24.0625H24.7177V29.5312ZM24.7177 21.875H11.5927V20.7812C11.5927 20.2011 11.8231 19.6447 12.2334 19.2345C12.6436 18.8242 13.2 18.5938 13.7802 18.5938H22.5302C23.1103 18.5938 23.6667 18.8242 24.0769 19.2345C24.4872 19.6447 24.7177 20.2011 24.7177 20.7812V21.875Z" fill="#FF4949"/>
</svg>
