<svg width="248" height="248" viewBox="0 0 248 248" fill="none" xmlns="http://www.w3.org/2000/svg">
<g clip-path="url(#clip0_86_320)">
<path d="M125.294 57.8691C113.723 57.8691 104.625 66.9599 104.625 78.5384C104.625 90.1169 113.716 99.2076 125.294 99.2076C136.865 99.2076 145.963 90.1169 145.963 78.5384C145.963 66.9599 136.873 57.8691 125.294 57.8691ZM125.294 90.9306C118.265 90.9306 112.894 85.5599 112.894 78.5306C112.894 71.5014 118.265 66.1306 125.294 66.1306C132.323 66.1306 137.694 71.5014 137.694 78.5306C137.694 85.5599 132.323 90.9306 125.294 90.9306Z" fill="#FF4949"/>
<path d="M166.625 146.731C166.625 116.971 166.625 83.08 166.625 70.68C166.625 47.5308 151.334 16.12 125.294 0C99.2542 16.12 83.9635 47.5308 83.9635 71.0908C83.9635 83.4908 83.9635 117.382 83.9635 147.141L42.6328 198.392H207.964L166.633 146.723L166.625 146.731ZM83.9558 190.131H59.985L83.9558 159.96V190.131ZM158.356 190.131H92.225V71.0908C92.225 52.4908 103.796 25.6215 125.294 9.92C146.785 25.6292 158.363 52.08 158.363 71.0908V190.131H158.356ZM166.625 159.96L190.596 190.131H166.625C166.625 183.102 166.625 172.36 166.625 159.96Z" fill="#FF4949"/>
<path d="M121.156 206.669H129.425V248H121.156V206.669Z" fill="#FF4949"/>
<path d="M141.825 206.669H150.094V231.469H141.825V206.669Z" fill="#FF4949"/>
<path d="M100.494 206.669H108.764V231.469H100.494V206.669Z" fill="#FF4949"/>
</g>
<defs>
<clipPath id="clip0_86_320">
<rect width="248" height="248" fill="white"/>
</clipPath>
</defs>
</svg>
