<svg width="100" height="119" viewBox="0 0 100 119" fill="none" xmlns="http://www.w3.org/2000/svg">
<path d="M77.0833 4.50565L70.9209 21.3496C70.6626 22.0556 70.822 22.8468 71.3335 23.3977L91.5327 45.1506C92.9169 46.6413 95.384 45.3539 94.9528 43.3658L87.6601 9.73817C87.5569 9.26245 87.2838 8.84069 86.8919 8.55194L80.1479 3.5827C79.0742 2.79151 77.5416 3.25309 77.0833 4.50565Z" fill="#FF4949"/>
<path d="M23.4162 3.53021L29.5868 20.5704C29.8407 21.2715 29.6835 22.0557 29.1789 22.6048L8.96913 44.5935C7.59036 46.0936 5.11353 44.8125 5.54115 42.8203L12.8421 8.80755C12.9439 8.3335 13.2144 7.91255 13.6033 7.62303L20.3415 2.6069C21.4168 1.80638 22.9598 2.26971 23.4162 3.53021Z" fill="#FF4949"/>
</svg>
