<svg width="330" height="395" viewBox="0 0 330 395" fill="none" xmlns="http://www.w3.org/2000/svg">
<rect x="0.5" y="0.5" width="329" height="394" rx="29.5" fill="white" stroke="#FF4949"/>
<path d="M0 30C0 13.4315 13.4315 0 30 0H300C316.569 0 330 13.4315 330 30V96H0V30Z" fill="#FF4949"/>
<g clip-path="url(#clip0_91_153)">
<path d="M169.294 181.869C157.723 181.869 148.625 190.96 148.625 202.538C148.625 214.117 157.716 223.208 169.294 223.208C180.865 223.208 189.963 214.117 189.963 202.538C189.963 190.96 180.873 181.869 169.294 181.869ZM169.294 214.931C162.265 214.931 156.894 209.56 156.894 202.531C156.894 195.501 162.265 190.131 169.294 190.131C176.323 190.131 181.694 195.501 181.694 202.531C181.694 209.56 176.323 214.931 169.294 214.931Z" fill="#FF4949"/>
<path d="M210.625 270.731C210.625 240.971 210.625 207.08 210.625 194.68C210.625 171.531 195.334 140.12 169.294 124C143.254 140.12 127.964 171.531 127.964 195.091C127.964 207.491 127.964 241.382 127.964 271.141L86.6328 322.392H251.964L210.633 270.723L210.625 270.731ZM127.956 314.131H103.985L127.956 283.96V314.131ZM202.356 314.131H136.225V195.091C136.225 176.491 147.796 149.622 169.294 133.92C190.785 149.629 202.363 176.08 202.363 195.091V314.131H202.356ZM210.625 283.96L234.596 314.131H210.625C210.625 307.102 210.625 296.36 210.625 283.96Z" fill="#FF4949"/>
<path d="M165.156 330.669H173.425V372H165.156V330.669Z" fill="#FF4949"/>
<path d="M185.825 330.669H194.094V355.469H185.825V330.669Z" fill="#FF4949"/>
<path d="M144.494 330.669H152.764V355.469H144.494V330.669Z" fill="#FF4949"/>
</g>
<path d="M92.3799 42V20.8623H97.5508L106.662 34.0459L102.59 31.6729H105.124V20.8623H111.335V42H106.223L97.0674 28.6406L101.125 31.0137H98.5908V42H92.3799ZM124.387 42.3809C122.209 42.3809 120.324 41.9414 118.732 41.0625C117.141 40.1738 115.91 38.9092 115.041 37.2686C114.182 35.6279 113.752 33.6846 113.752 31.4385V31.4092C113.752 29.1631 114.187 27.2246 115.056 25.5938C115.925 23.9531 117.155 22.6934 118.747 21.8145C120.339 20.9258 122.219 20.4814 124.387 20.4814C126.574 20.4814 128.464 20.9258 130.056 21.8145C131.657 22.7031 132.888 23.9629 133.747 25.5938C134.616 27.2246 135.051 29.1631 135.051 31.4092V31.4385C135.051 33.6846 134.616 35.6279 133.747 37.2686C132.888 38.8994 131.662 40.1592 130.07 41.0479C128.479 41.9365 126.584 42.3809 124.387 42.3809ZM124.387 37.3125C125.285 37.3125 126.057 37.0732 126.701 36.5947C127.346 36.1162 127.844 35.4375 128.195 34.5586C128.547 33.6797 128.723 32.6396 128.723 31.4385V31.4092C128.723 30.1982 128.542 29.1582 128.181 28.2891C127.829 27.4102 127.326 26.7363 126.672 26.2676C126.027 25.7891 125.266 25.5498 124.387 25.5498C123.527 25.5498 122.771 25.7842 122.116 26.2529C121.472 26.7217 120.969 27.3955 120.607 28.2744C120.256 29.1436 120.08 30.1885 120.08 31.4092V31.4385C120.08 32.6494 120.256 33.6943 120.607 34.5732C120.969 35.4521 121.472 36.1309 122.116 36.6094C122.761 37.0781 123.518 37.3125 124.387 37.3125ZM142.067 42L135.71 20.8623H142.741L146.096 36.1113H146.213L149.567 20.8623H156.599L150.241 42H142.067ZM154.548 42L161.447 20.8623H167.307V25.9014H165.285L161.081 42H154.548ZM158.884 37.7959L160.173 33.416H170.515L171.804 37.7959H158.884ZM169.606 42L165.402 25.9014V20.8623H169.24L176.14 42H169.606ZM180.021 42V25.7842H174.455V20.8623H191.799V25.7842H186.232V42H180.021ZM203.02 42.3809C200.842 42.3809 198.957 41.9414 197.365 41.0625C195.773 40.1738 194.543 38.9092 193.674 37.2686C192.814 35.6279 192.385 33.6846 192.385 31.4385V31.4092C192.385 29.1631 192.819 27.2246 193.688 25.5938C194.558 23.9531 195.788 22.6934 197.38 21.8145C198.972 20.9258 200.852 20.4814 203.02 20.4814C205.207 20.4814 207.097 20.9258 208.688 21.8145C210.29 22.7031 211.521 23.9629 212.38 25.5938C213.249 27.2246 213.684 29.1631 213.684 31.4092V31.4385C213.684 33.6846 213.249 35.6279 212.38 37.2686C211.521 38.8994 210.295 40.1592 208.703 41.0479C207.111 41.9365 205.217 42.3809 203.02 42.3809ZM203.02 37.3125C203.918 37.3125 204.689 37.0732 205.334 36.5947C205.979 36.1162 206.477 35.4375 206.828 34.5586C207.18 33.6797 207.355 32.6396 207.355 31.4385V31.4092C207.355 30.1982 207.175 29.1582 206.813 28.2891C206.462 27.4102 205.959 26.7363 205.305 26.2676C204.66 25.7891 203.898 25.5498 203.02 25.5498C202.16 25.5498 201.403 25.7842 200.749 26.2529C200.104 26.7217 199.602 27.3955 199.24 28.2744C198.889 29.1436 198.713 30.1885 198.713 31.4092V31.4385C198.713 32.6494 198.889 33.6943 199.24 34.5732C199.602 35.4521 200.104 36.1309 200.749 36.6094C201.394 37.0781 202.15 37.3125 203.02 37.3125ZM216.101 42V20.8623H225.622C227.438 20.8623 228.967 21.1406 230.207 21.6973C231.457 22.2539 232.404 23.0693 233.049 24.1436C233.693 25.2178 234.016 26.5361 234.016 28.0986V28.1279C234.016 29.4463 233.703 30.6523 233.078 31.7461C232.463 32.8398 231.643 33.6357 230.617 34.1338L234.631 42H227.688L224.348 35.0566C224.309 35.0566 224.265 35.0566 224.216 35.0566C224.167 35.0566 224.118 35.0566 224.069 35.0566H222.312V42H216.101ZM222.312 30.6768H224.904C225.744 30.6768 226.418 30.4375 226.926 29.959C227.434 29.4805 227.688 28.8555 227.688 28.084V28.0547C227.688 27.2832 227.429 26.6582 226.911 26.1797C226.394 25.6914 225.725 25.4473 224.904 25.4473H222.312V30.6768ZM96.4961 72.2285V67.6436H101.345C102.37 67.6436 103.171 67.3896 103.747 66.8818C104.333 66.3643 104.626 65.6025 104.626 64.5967V64.5674C104.626 63.5518 104.333 62.7949 103.747 62.2969C103.171 61.7891 102.37 61.5352 101.345 61.5352H96.4961V56.8623H102.824C104.475 56.8623 105.9 57.1797 107.102 57.8145C108.312 58.4492 109.245 59.3428 109.899 60.4951C110.563 61.6475 110.896 63.0049 110.896 64.5674V64.5967C110.896 66.1592 110.563 67.5117 109.899 68.6543C109.245 69.7969 108.312 70.6807 107.102 71.3057C105.9 71.9209 104.475 72.2285 102.824 72.2285H96.4961ZM93.376 78V56.8623H99.5869V78H93.376ZM113.093 78V56.8623H122.614C124.431 56.8623 125.959 57.1406 127.199 57.6973C128.449 58.2539 129.396 59.0693 130.041 60.1436C130.686 61.2178 131.008 62.5361 131.008 64.0986V64.1279C131.008 65.4463 130.695 66.6523 130.07 67.7461C129.455 68.8398 128.635 69.6357 127.609 70.1338L131.623 78H124.68L121.34 71.0566C121.301 71.0566 121.257 71.0566 121.208 71.0566C121.159 71.0566 121.11 71.0566 121.062 71.0566H119.304V78H113.093ZM119.304 66.6768H121.896C122.736 66.6768 123.41 66.4375 123.918 65.959C124.426 65.4805 124.68 64.8555 124.68 64.084V64.0547C124.68 63.2832 124.421 62.6582 123.903 62.1797C123.386 61.6914 122.717 61.4473 121.896 61.4473H119.304V66.6768ZM133.542 78V56.8623H148.454V61.7842H139.753V65.1533H147.912V69.7236H139.753V73.0781H148.454V78H133.542ZM151.354 78V56.8623H158.532L163.205 69.4453H163.308L167.98 56.8623H175.158V78H169.738V65.7539H166.853L172.844 57.4482L164.919 78H161.594L153.669 57.4482L159.66 65.7539H156.774V78H151.354ZM178.103 78V56.8623H184.313V78H178.103ZM196.545 78.3809C194.689 78.3809 193.063 78.0586 191.667 77.4141C190.271 76.7598 189.182 75.8418 188.4 74.6602C187.629 73.4688 187.243 72.0723 187.243 70.4707V56.8623H193.454V69.8555C193.454 70.5977 193.571 71.2275 193.806 71.7451C194.05 72.2529 194.401 72.6436 194.86 72.917C195.319 73.1807 195.886 73.3125 196.56 73.3125C197.233 73.3125 197.8 73.1807 198.259 72.917C198.728 72.6436 199.079 72.2529 199.313 71.7451C199.548 71.2275 199.665 70.5977 199.665 69.8555V56.8623H205.876V70.4707C205.876 72.0625 205.49 73.4541 204.719 74.6455C203.947 75.8271 202.863 76.7451 201.467 77.3994C200.07 78.0537 198.43 78.3809 196.545 78.3809ZM208.806 78V56.8623H215.983L220.656 69.4453H220.759L225.432 56.8623H232.609V78H227.189V65.7539H224.304L230.295 57.4482L222.37 78H219.045L211.12 57.4482L217.111 65.7539H214.226V78H208.806Z" fill="white"/>
<defs>
<clipPath id="clip0_91_153">
<rect width="248" height="248" fill="white" transform="translate(44 124)"/>
</clipPath>
</defs>
</svg>
