<svg width="100" height="100" viewBox="0 0 100 100" fill="none" xmlns="http://www.w3.org/2000/svg">
<path d="M35.9707 13.4106C37.0495 12.5881 38.6173 13.0553 39.0693 14.3345L42.7744 24.8179C34.9962 26.613 28.3034 31.2449 23.8418 37.5639L27.4053 20.5561C27.5038 20.0864 27.7679 19.6676 28.1494 19.3764L35.9707 13.4106ZM59.9697 14.3345C60.4219 13.0553 61.9896 12.5878 63.0684 13.4106L70.8887 19.3764C71.2703 19.6676 71.5353 20.0863 71.6338 20.5561L74.8301 35.8159C70.232 30.1662 63.746 26.1157 56.332 24.6274L59.9697 14.3345Z" fill="#FF4949"/>
<path d="M50 87.3438C45.6042 87.3438 41.4792 86.5104 37.625 84.8438C33.7708 83.1979 30.3854 80.9167 27.4688 78C24.5521 75.0625 22.2604 71.6771 20.5938 67.8438C18.9479 63.9896 18.125 59.8646 18.125 55.4688C18.125 51.0729 18.9479 46.9479 20.5938 43.0938C22.2604 39.2396 24.5521 35.8542 27.4688 32.9375C30.3854 30.0208 33.7708 27.7396 37.625 26.0938C41.4792 24.4271 45.6042 23.5938 50 23.5938C54.3958 23.5938 58.5208 24.4271 62.375 26.0938C66.2292 27.7396 69.6146 30.0208 72.5312 32.9375C75.4479 35.8542 77.7292 39.2396 79.375 43.0938C81.0417 46.9479 81.875 51.0729 81.875 55.4688C81.875 59.8646 81.0417 63.9896 79.375 67.8438C77.7292 71.6771 75.4479 75.0625 72.5312 78C69.6146 80.9167 66.2292 83.1979 62.375 84.8438C58.5208 86.5104 54.3958 87.3438 50 87.3438ZM35.2812 71.8438H64.7188C65.3646 71.8438 65.8438 71.6562 66.1562 71.2812C66.4688 70.8854 66.625 70.3958 66.625 69.8125C66.625 68.9375 66.2812 67.8021 65.5938 66.4062C64.9271 64.9896 63.9062 63.5729 62.5312 62.1562C61.1771 60.7396 59.4583 59.5521 57.375 58.5938C55.2917 57.6354 52.8333 57.1562 50 57.1562C47.1667 57.1562 44.7083 57.6354 42.625 58.5938C40.5417 59.5521 38.8125 60.7396 37.4375 62.1562C36.0833 63.5729 35.0625 64.9896 34.375 66.4062C33.7083 67.8021 33.375 68.9375 33.375 69.8125C33.375 70.3958 33.5312 70.8854 33.8438 71.2812C34.1562 71.6562 34.6354 71.8438 35.2812 71.8438ZM50 54.5C51.5208 54.5208 52.9062 54.1354 54.1562 53.3438C55.4062 52.5521 56.4062 51.4688 57.1562 50.0938C57.9062 48.7188 58.2812 47.1771 58.2812 45.4688C58.2812 43.8646 57.9062 42.3958 57.1562 41.0625C56.4062 39.7083 55.4062 38.6354 54.1562 37.8438C52.9062 37.0312 51.5208 36.625 50 36.625C48.4792 36.625 47.0938 37.0312 45.8438 37.8438C44.5938 38.6354 43.5938 39.7083 42.8438 41.0625C42.0938 42.3958 41.7188 43.8646 41.7188 45.4688C41.7188 47.1771 42.0938 48.7188 42.8438 50.0938C43.5938 51.4479 44.5938 52.5208 45.8438 53.3125C47.0938 54.1042 48.4792 54.5 50 54.5Z" fill="#FF4949"/>
</svg>
