<svg width="36" height="35" viewBox="0 0 36 35" fill="none" xmlns="http://www.w3.org/2000/svg">
<path d="M31.6191 17.4995C31.6189 9.85972 25.4249 3.6665 17.7851 3.6665C10.1454 3.66668 3.95226 9.85983 3.95209 17.4995C3.95209 25.1393 10.1453 31.3333 17.7851 31.3335C25.425 31.3335 31.6191 25.1395 31.6191 17.4995ZM33.1191 17.4995C33.1191 25.9679 26.2535 32.8335 17.7851 32.8335C9.31688 32.8333 2.45209 25.9678 2.45209 17.4995C2.45226 9.0314 9.31699 2.16668 17.7851 2.1665C26.2534 2.1665 33.1189 9.03129 33.1191 17.4995Z" fill="#FF4949"/>
<path d="M22.8691 17.4995C22.869 13.5436 22.2259 9.99655 21.2138 7.46631C20.7069 6.19912 20.1217 5.22373 19.5107 4.57764C18.9013 3.93335 18.3177 3.6665 17.7851 3.6665C17.2524 3.66661 16.6689 3.93324 16.0595 4.57764C15.4485 5.22371 14.8642 6.19917 14.3574 7.46631C13.3453 9.99655 12.7021 13.5436 12.7021 17.4995C12.7021 21.4556 13.3452 25.0034 14.3574 27.5337C14.8641 28.8005 15.4487 29.7754 16.0595 30.4214C16.6689 31.0658 17.2524 31.3334 17.7851 31.3335C18.3178 31.3335 18.9011 31.0659 19.5107 30.4214C20.1216 29.7753 20.7069 28.8007 21.2138 27.5337C22.2259 25.0034 22.8691 21.4556 22.8691 17.4995ZM24.3691 17.4995C24.3691 21.5976 23.7055 25.3425 22.6064 28.0903C22.0577 29.4621 21.3853 30.6228 20.6005 31.4526C19.8143 32.2839 18.8631 32.8335 17.7851 32.8335C16.7071 32.8334 15.7558 32.2839 14.9697 31.4526C14.1849 30.6228 13.5125 29.4621 12.9638 28.0903C11.8647 25.3425 11.2021 21.5975 11.2021 17.4995C11.2021 13.4018 11.8648 9.65737 12.9638 6.90967C13.5125 5.53795 14.185 4.37715 14.9697 3.54736C15.7558 2.71606 16.7071 2.16661 17.7851 2.1665C18.8631 2.1665 19.8143 2.71605 20.6005 3.54736C21.3853 4.37716 22.0577 5.53784 22.6064 6.90967C23.7054 9.65739 24.369 13.4017 24.3691 17.4995Z" fill="#FF4949"/>
<path d="M32.3691 16.75C32.7831 16.7502 33.1191 17.0859 33.1191 17.5C33.1191 17.9141 32.7831 18.2498 32.3691 18.25H3.20209C2.78787 18.25 2.45209 17.9142 2.45209 17.5C2.45209 17.0858 2.78787 16.75 3.20209 16.75H32.3691Z" fill="#FF4949"/>
</svg>
