<svg width="35" height="35" viewBox="0 0 35 35" fill="none" xmlns="http://www.w3.org/2000/svg">
<path d="M7.97953 22.5406C5.79203 24.3781 5.06287 29.8323 5.06287 29.8323C5.06287 29.8323 10.517 29.1031 12.3545 26.9156C13.3899 25.6906 13.3754 23.8094 12.2233 22.6719C11.6564 22.1309 10.9098 21.8182 10.1265 21.794C9.34331 21.7698 8.57873 22.0357 7.97953 22.5406Z" fill="#FF4949"/>
<path d="M10.1486 21.0648C11.1113 21.0946 12.0295 21.4794 12.7263 22.1443L12.7363 22.1529C14.1784 23.577 14.173 25.8897 12.9114 27.3838L12.9129 27.3852C12.3603 28.0428 11.5721 28.5521 10.7595 28.949C9.93855 29.3499 9.04129 29.6612 8.22027 29.896C7.39687 30.1315 6.63496 30.2947 6.07976 30.4002C5.80165 30.453 5.57383 30.4917 5.41468 30.5169C5.33524 30.5295 5.27279 30.5391 5.22954 30.5454C5.20814 30.5485 5.19143 30.5509 5.1797 30.5525C5.17382 30.5534 5.16876 30.5535 5.16546 30.554C5.1638 30.5542 5.16218 30.5553 5.16118 30.5554H5.15976C4.93456 30.5855 4.70803 30.5081 4.54737 30.3475C4.38688 30.1868 4.31078 29.9602 4.34087 29.7351V29.7294C4.3413 29.7262 4.34155 29.7219 4.34229 29.7166C4.34393 29.7048 4.34627 29.687 4.34942 29.6653C4.35571 29.622 4.36531 29.5595 4.3779 29.4802C4.40313 29.321 4.44188 29.0932 4.49468 28.8151C4.6001 28.2599 4.76477 27.4978 5.00025 26.6746C5.2351 25.8536 5.54495 24.9562 5.94589 24.1353C6.34285 23.3226 6.85326 22.5345 7.51104 21.982C8.24732 21.3621 9.1865 21.0352 10.1486 21.0648ZM10.1044 22.5232C9.50084 22.5045 8.91132 22.7094 8.44955 23.0985H8.44813C8.01223 23.4647 7.61106 24.0482 7.25611 24.7748C6.9052 25.4932 6.62248 26.3041 6.40162 27.0762C6.20216 27.7735 6.05846 28.4277 5.95871 28.9347C6.46587 28.835 7.12078 28.6928 7.81865 28.4932C8.59077 28.2724 9.40168 27.9896 10.1201 27.6387C10.8468 27.2838 11.4301 26.8827 11.7963 26.4467L11.7977 26.4453C12.6043 25.4911 12.5722 24.0463 11.7151 23.1954C11.279 22.7812 10.7058 22.5419 10.1044 22.5232Z" fill="#FF4949"/>
<path d="M32.0876 2.1869C32.4884 2.18938 32.8123 2.51529 32.8125 2.91606C32.8125 7.02578 31.6246 14.2773 23.7392 19.5644L23.7235 19.5744C21.8403 20.7653 19.8418 21.7645 17.7592 22.5566C17.4908 22.6586 17.1875 22.593 16.9844 22.3899L12.6094 18.0149C12.4057 17.811 12.3406 17.5063 12.4442 17.2374C13.2379 15.1783 14.2379 13.2041 15.4278 11.3456C17.1926 8.52658 19.6486 6.20518 22.5629 4.60226C25.4796 2.99804 28.7588 2.16629 32.0876 2.1869ZM31.3399 3.65662C28.5151 3.75476 25.749 4.51433 23.2664 5.87973C20.5675 7.36409 18.293 9.51464 16.6597 12.1261L16.6555 12.1332C15.6036 13.7762 14.7082 15.5138 13.9795 17.3228L17.6766 21.0199C19.5062 20.293 21.2653 19.4 22.9303 18.3482C29.8131 13.7312 31.1954 7.55906 31.3399 3.65662Z" fill="#FF4949"/>
<path d="M13.125 17.5001H5.83331C5.83331 17.5001 6.6354 13.0814 8.74998 11.6668C11.1125 10.0918 16.0416 11.6668 16.0416 11.6668" fill="#FF4949"/>
<path d="M10.8179 10.2759C11.6837 10.1954 12.5801 10.2503 13.3757 10.3528C14.1739 10.4557 14.8919 10.6098 15.4094 10.7373C15.6685 10.8012 15.879 10.8589 16.026 10.9011C16.0996 10.9222 16.1582 10.9402 16.1983 10.9524C16.2178 10.9583 16.233 10.9632 16.2439 10.9666C16.2494 10.9684 16.255 10.9685 16.2581 10.9695L16.261 10.9709L16.2624 10.9723C16.6458 11.0948 16.8588 11.5046 16.7367 11.8881C16.6141 12.2717 16.2031 12.4834 15.8195 12.3609H15.8181C15.8165 12.3604 15.8143 12.3591 15.811 12.358C15.8032 12.3556 15.7905 12.3517 15.7739 12.3466C15.7407 12.3365 15.6902 12.3214 15.6244 12.3025C15.4928 12.2647 15.2999 12.212 15.0604 12.153C14.5801 12.0345 13.918 11.8937 13.1891 11.7998C12.4571 11.7054 11.6761 11.6614 10.9532 11.7286C10.2242 11.7963 9.60649 11.9727 9.15447 12.274C8.30918 12.8403 7.64531 14.0936 7.18487 15.363C6.99563 15.8847 6.85317 16.3778 6.7505 16.7715H13.125C13.5277 16.7715 13.8542 17.0979 13.8542 17.5006C13.8538 17.903 13.5275 18.2298 13.125 18.2298H5.83334C5.61731 18.2298 5.41219 18.1335 5.27365 17.9678C5.13511 17.8018 5.07696 17.5823 5.11557 17.3696V17.3682C5.11574 17.3673 5.11673 17.3654 5.11699 17.3639C5.11752 17.3611 5.11894 17.3573 5.11984 17.3525C5.12173 17.3425 5.12344 17.3278 5.12696 17.3098C5.13399 17.2739 5.14457 17.2225 5.15829 17.1574C5.18591 17.0265 5.22722 16.8394 5.28362 16.612C5.39618 16.1582 5.57006 15.5354 5.8134 14.8645C6.28244 13.5716 7.07705 11.9092 8.34555 11.0606C9.07453 10.5746 9.95857 10.3558 10.8179 10.2759Z" fill="#FF4949"/>
<path d="M17.5 21.8752V29.1668C17.5 29.1668 21.9188 28.3647 23.3333 26.2502C24.9083 23.8877 23.3333 18.9585 23.3333 18.9585" fill="#FF4949"/>
<path d="M16.7708 29.1666V21.8749C16.7708 21.4722 17.0973 21.1458 17.5 21.1458C17.9027 21.1458 18.2291 21.4722 18.2291 21.8749V28.248C18.6227 28.1453 19.1162 28.0042 19.6376 27.8151C20.9076 27.3544 22.1608 26.6899 22.7266 25.8441C23.0276 25.3921 23.2043 24.7753 23.2721 24.0468C23.3393 23.3239 23.2952 22.5428 23.2009 21.8108C23.1069 21.0819 22.9647 20.4199 22.8463 19.9395C22.7872 19.7002 22.7345 19.5071 22.6967 19.3755C22.6779 19.3099 22.6627 19.2592 22.6526 19.226C22.6476 19.2096 22.6436 19.1967 22.6412 19.189C22.6402 19.1859 22.6402 19.1834 22.6397 19.1819L22.6383 19.1804C22.5158 18.7969 22.7276 18.3859 23.1111 18.2633C23.4947 18.1407 23.9057 18.3526 24.0283 18.7361V18.7389L24.0297 18.7418C24.0307 18.745 24.0323 18.7505 24.034 18.756C24.0374 18.7669 24.0423 18.7822 24.0482 18.8016C24.0604 18.8417 24.0784 18.9004 24.0995 18.9739C24.1417 19.121 24.1994 19.3315 24.2633 19.5906C24.3909 20.108 24.5449 20.826 24.6478 21.6243C24.7503 22.4199 24.8038 23.3163 24.7233 24.1821C24.6433 25.0413 24.426 25.9254 23.94 26.6544C23.0913 27.9231 21.4276 28.7175 20.1347 29.1865C19.4641 29.4298 18.8424 29.6038 18.3887 29.7163C18.1613 29.7727 17.9742 29.814 17.8432 29.8416C17.7777 29.8555 17.7255 29.8659 17.6894 29.873C17.6719 29.8764 17.658 29.8782 17.6481 29.8801C17.6431 29.881 17.6382 29.8824 17.6353 29.8829L17.6324 29.8844H17.6296C17.4171 29.9227 17.1986 29.8646 17.0329 29.7263C16.8669 29.5878 16.7708 29.3828 16.7708 29.1666Z" fill="#FF4949"/>
<path d="M27.9559 10.3458C27.9559 12.1694 26.4776 13.6477 24.6541 13.6477C22.8305 13.6477 21.3522 12.1694 21.3522 10.3458C21.3522 8.52225 22.8305 7.04395 24.6541 7.04395C26.4776 7.04395 27.9559 8.52225 27.9559 10.3458Z" fill="#FF4949"/>
</svg>
